<?xml version="1.0" encoding="utf-8"?>
<!-- Generator: Adobe Illustrator 26.0.2, SVG Export Plug-In . SVG Version: 6.00 Build 0)  -->
<svg version="1.1" id="Layer_1" xmlns="http://www.w3.org/2000/svg" xmlns:xlink="http://www.w3.org/1999/xlink" x="0px" y="0px"
	 style="enable-background:new 0 0 194.3 45.1;" xml:space="preserve">
<style type="text/css">
	.st0{fill-rule:evenodd;clip-rule:evenodd;fill:#00946A;}
	.st1{fill-rule:evenodd;clip-rule:evenodd;fill:#EDEDED;}
</style>
<g>
	<path class="st0" d="M0,33.8c18-9.7,29.2,5.3,52.4,0c2.4-9,4.4-16.6,6.9-25.6C36.1,14,25.1,0,6.9,8.2C4.4,17.2,2.4,24.8,0,33.8
		L0,33.8z"/>
	<path class="st1" d="M41.1,11.5c-0.3,0-0.6,0.2-0.8,0.5c-0.1,0.3,0,0.6,0.3,0.6c1.7,0.2,3.4,0.3,5.2,0.4c1.5,0,3.1,0,4.7-0.1
		c-0.2,1.2,0,2.2,0.6,3c0.5,0.8,1.4,1.3,2.4,1.5L51,26.7c-1.1,0.2-2.3,0.7-3.2,1.5c-1.1,0.9-1.9,2.1-2.3,3.4l0,0
		c-2.1,0.1-4.2,0.1-6.2-0.1c-2.2-0.2-4.4-0.5-6.6-1c-0.3-0.1-0.6,0.1-0.8,0.5c-0.1,0.3,0,0.6,0.3,0.7c2.3,0.5,4.5,0.8,6.8,1
		c2.3,0.2,4.6,0.2,6.9,0.1c0,0,0,0,0.1,0c0.3,0,0.6-0.3,0.7-0.6c0-0.1,0-0.2,0-0.2c0-0.1,0-0.1,0.1-0.2c0.3-1,0.9-2,1.8-2.6
		c0.8-0.7,1.8-1.1,2.9-1.2c0,0,0,0,0,0c0.3,0,0.6-0.3,0.7-0.6l2.8-10.5h0c0.1-0.3-0.1-0.6-0.4-0.6c-1,0-1.8-0.5-2.3-1.2
		c-0.5-0.7-0.6-1.6-0.4-2.6c0-0.1,0-0.1,0-0.1c0,0,0,0,0-0.1l0,0c0,0,0-0.1,0-0.1c0.1-0.3-0.2-0.5-0.5-0.5c-1.8,0.2-3.5,0.2-5.2,0.2
		C44.5,11.8,42.8,11.6,41.1,11.5L41.1,11.5z"/>
	<path class="st1" d="M32.5,10.4c5.4,0,8.7,4.4,7.2,9.9c-1.5,5.4-7.1,9.9-12.5,9.9s-8.7-4.4-7.2-9.9C21.4,14.8,27,10.4,32.5,10.4
		L32.5,10.4z"/>
	<path class="st0" d="M28.7,27.8l0.5-1.9c0.7-0.1,1.4-0.4,2-0.7c0.6-0.3,1.1-0.7,1.4-1.2c0.4-0.5,0.6-1,0.8-1.5
		c0.2-0.5,0.2-1,0.1-1.5c-0.1-0.4-0.3-0.8-0.7-1.1c-0.4-0.3-0.9-0.6-1.5-0.9c-0.5-0.2-0.8-0.4-1.1-0.5c-0.3-0.2-0.5-0.3-0.6-0.5
		c-0.1-0.2-0.1-0.3-0.1-0.5c0-0.2,0.1-0.3,0.3-0.5c0.1-0.2,0.3-0.3,0.6-0.4c0.3-0.1,0.6-0.2,1-0.2c0.4,0,0.8,0,1.1,0.1
		c0.3,0.1,0.6,0.2,0.8,0.3c0.2,0.1,0.4,0.2,0.5,0.3l1.1-2.1c-0.3-0.2-0.6-0.3-1-0.4c-0.4-0.1-0.9-0.2-1.5-0.2l0.4-1.6H31l-0.5,1.7
		c-0.7,0.1-1.3,0.4-1.9,0.7c-0.5,0.3-1,0.7-1.4,1.1c-0.4,0.4-0.6,0.9-0.8,1.5c-0.2,0.6-0.2,1.1,0,1.5c0.2,0.4,0.5,0.8,0.9,1.1
		c0.4,0.3,0.9,0.6,1.5,0.8c0.4,0.2,0.7,0.3,1,0.5c0.2,0.2,0.4,0.3,0.5,0.5c0.1,0.2,0.1,0.4,0,0.6c-0.1,0.2-0.2,0.5-0.4,0.6
		c-0.2,0.2-0.4,0.3-0.7,0.4c-0.3,0.1-0.6,0.1-1,0.1c-0.4,0-0.8,0-1.1-0.1c-0.3-0.1-0.7-0.2-1-0.3c-0.3-0.1-0.5-0.3-0.8-0.4l-1.1,2.2
		c0.2,0.1,0.4,0.3,0.7,0.4c0.3,0.1,0.6,0.2,1,0.3c0.4,0.1,0.8,0.1,1.2,0.1l-0.5,1.7H28.7L28.7,27.8z"/>
	<path class="st1" d="M18.3,28.6c0.3,0,0.6-0.2,0.8-0.5c0.1-0.3,0-0.6-0.3-0.6c-1.2-0.2-2.4-0.3-3.7-0.3c-1.2-0.1-2.5,0-3.8,0.1
		c-0.4,0-0.9,0.1-1.3,0.1c-0.3,0-0.5,0.1-0.8,0.1c-0.1-0.9-0.4-1.7-1-2.3c-0.6-0.6-1.4-1-2.4-1.1l2.5-9.4c1.2-0.1,2.4-0.6,3.4-1.4
		c1.1-0.9,2-2.1,2.4-3.5c0.1-0.2,0.1-0.5,0.1-0.7c0,0,0,0,0-0.1c0.3,0,0.7-0.1,1-0.1c0.6-0.1,1.1-0.1,1.6-0.1c1.7-0.1,3.4,0,5.1,0.2
		c1.7,0.2,3.4,0.5,5.1,0.9c0.3,0.1,0.6-0.1,0.8-0.4c0.1-0.3,0-0.6-0.3-0.7C26,8.5,24.2,8.2,22.5,8c-1.7-0.2-3.5-0.3-5.3-0.2
		c-0.6,0-1.2,0.1-1.7,0.1C15,7.9,14.4,8,13.8,8.1v0c0,0,0,0-0.1,0c-0.3,0.1-0.6,0.4-0.6,0.7c0,0.2,0,0.3,0,0.5
		c0,0.2-0.1,0.3-0.1,0.5c-0.3,1-1,2-1.8,2.7c-0.9,0.7-1.9,1.1-3,1.1c-0.1,0,0,0-0.1,0l0,0c0,0,0,0-0.1,0c-0.3,0-0.6,0.3-0.7,0.6
		L4.6,24.7h0l0,0C4.5,25,4.7,25.2,5,25.2l0.1,0c0.1,0-0.1,0,0.1,0c0.9,0,1.7,0.3,2.2,0.8c0.5,0.5,0.8,1.3,0.7,2.2h0
		c0,0.3,0.2,0.5,0.5,0.4c0.4-0.1,0.8-0.1,1.3-0.2c0.4-0.1,0.8-0.1,1.3-0.1c1.2-0.1,2.4-0.1,3.6-0.1C16,28.4,17.1,28.5,18.3,28.6
		L18.3,28.6z"/>
	<path class="st0" d="M30.6,38.8c7.7,1.7,15.2,1.5,24-0.5l1.4-0.3l0.4-1.3l6.8-25.3l-2.6,0.6l-6,22.2l-0.4,1.3L52.9,36
		c-8.8,2-16.1,1.3-23.8-0.4c-3.1-0.7-6.2-1.5-9.4-2.1c-2.8-0.5-5.7-0.9-8.8-0.7c-2.6,0.2-5.2,0.8-7.7,2l-0.8,3.1
		C12,33.2,20.4,36.6,30.6,38.8L30.6,38.8z"/>
</g>
<g>
	<path d="M79.8,22.6l5.4-17.8h5.4l-8.2,23.6h-5.1L69.1,4.8h5.4L79.8,22.6z" fill="#000000"/>
	<path d="M101.9,28.4c-0.2-0.4-0.4-0.9-0.5-1.6c-1.1,1.3-2.6,1.9-4.4,1.9c-1.7,0-3.1-0.5-4.3-1.5s-1.7-2.3-1.7-3.8
		c0-1.9,0.7-3.3,2.1-4.3c1.4-1,3.4-1.5,6-1.5h2.2v-1c0-0.8-0.2-1.5-0.6-1.9c-0.4-0.5-1.1-0.7-2-0.7c-0.8,0-1.4,0.2-1.9,0.6
		s-0.7,0.9-0.7,1.6h-4.7c0-1,0.3-2,0.9-2.8c0.6-0.9,1.5-1.5,2.7-2c1.1-0.5,2.4-0.7,3.9-0.7c2.2,0,3.9,0.5,5.2,1.6s1.9,2.6,1.9,4.6
		v7.6c0,1.7,0.2,2.9,0.7,3.8v0.3H101.9z M98.1,25.2c0.7,0,1.3-0.2,1.9-0.5s1-0.7,1.3-1.2v-3h-1.8c-2.3,0-3.6,0.8-3.8,2.4l0,0.3
		c0,0.6,0.2,1.1,0.6,1.4C96.8,25,97.3,25.2,98.1,25.2z" fill="#000000"/>
	<path d="M114.5,28.4h-4.7V3.5h4.7V28.4z" fill="#000000"/>
	<path d="M128.9,26.7c-1.2,1.4-2.8,2.1-4.8,2.1c-1.9,0-3.3-0.5-4.3-1.6s-1.5-2.7-1.5-4.8V10.9h4.7v11.4c0,1.8,0.8,2.7,2.5,2.7
		c1.6,0,2.7-0.6,3.3-1.7V10.9h4.7v17.6H129L128.9,26.7z" fill="#000000"/>
	<path d="M140.2,26.8h11.7v1.7h-13.7V4.8h2V26.8z" fill="#000000"/>
	<path d="M155.1,5.8c0-0.4,0.1-0.7,0.4-0.9c0.2-0.3,0.6-0.4,1-0.4c0.4,0,0.7,0.1,1,0.4c0.2,0.3,0.4,0.6,0.4,0.9s-0.1,0.7-0.4,0.9
		c-0.2,0.2-0.6,0.4-1,0.4c-0.4,0-0.7-0.1-1-0.4S155.1,6.2,155.1,5.8z M157.4,28.4h-1.9V10.9h1.9V28.4z" fill="#000000"/>
	<path d="M164.1,28.4v-16h-2.9v-1.6h2.9V8.8c0-1.8,0.5-3.2,1.4-4.1c0.9-1,2.2-1.4,3.8-1.4c0.7,0,1.4,0.1,2.1,0.3L171.2,5
		c-0.5-0.1-1.1-0.2-1.8-0.2c-1.1,0-1.9,0.3-2.5,1c-0.6,0.7-0.9,1.6-0.9,2.8v2.2h4.2v1.6h-4.2v16H164.1z" fill="#000000"/>
	<path d="M180.5,28.8c-1.5,0-2.8-0.4-4.1-1.1s-2.1-1.8-2.8-3.1c-0.7-1.3-1-2.8-1-4.4v-0.7c0-1.7,0.3-3.2,1-4.6
		c0.7-1.4,1.6-2.4,2.7-3.2s2.4-1.2,3.8-1.2c2.1,0,3.8,0.7,5.1,2.2c1.2,1.5,1.9,3.4,1.9,6v1.1h-12.5v0.4c0,2,0.6,3.7,1.7,5
		c1.1,1.3,2.6,2,4.3,2c1,0,2-0.2,2.8-0.6s1.5-1,2.2-1.8l1.2,0.9C185.3,27.7,183.2,28.8,180.5,28.8z M180.2,12.2
		c-1.5,0-2.7,0.5-3.7,1.6s-1.6,2.5-1.8,4.3h10.5v-0.2c-0.1-1.7-0.5-3.1-1.4-4.1S181.6,12.2,180.2,12.2z" fill="#000000"/>
</g>
<g>
	<path d="M72.2,41.7h3.7v0.5h-4.4v-7.5h0.6V41.7z" fill="#000000"/>
	<path d="M77,35c0-0.1,0-0.2,0.1-0.3c0.1-0.1,0.2-0.1,0.3-0.1s0.2,0,0.3,0.1c0.1,0.1,0.1,0.2,0.1,0.3s0,0.2-0.1,0.3
		c-0.1,0.1-0.2,0.1-0.3,0.1s-0.2,0-0.3-0.1C77,35.2,77,35.1,77,35z M77.7,42.3h-0.6v-5.6h0.6V42.3z" fill="#000000"/>
	<path d="M79.8,42.3v-5.1h-0.9v-0.5h0.9V36c0-0.6,0.1-1,0.4-1.3s0.7-0.5,1.2-0.5c0.2,0,0.5,0,0.7,0.1l0,0.5c-0.2,0-0.4-0.1-0.6-0.1
		c-0.3,0-0.6,0.1-0.8,0.3c-0.2,0.2-0.3,0.5-0.3,0.9v0.7h1.3v0.5h-1.3v5.1H79.8z" fill="#000000"/>
	<path d="M85.1,42.4c-0.5,0-0.9-0.1-1.3-0.4c-0.4-0.2-0.7-0.6-0.9-1c-0.2-0.4-0.3-0.9-0.3-1.4v-0.2c0-0.5,0.1-1,0.3-1.5
		c0.2-0.4,0.5-0.8,0.9-1c0.4-0.2,0.8-0.4,1.2-0.4c0.7,0,1.2,0.2,1.6,0.7c0.4,0.5,0.6,1.1,0.6,1.9v0.3h-4v0.1c0,0.6,0.2,1.2,0.5,1.6
		c0.4,0.4,0.8,0.6,1.4,0.6c0.3,0,0.6-0.1,0.9-0.2c0.3-0.1,0.5-0.3,0.7-0.6l0.4,0.3C86.6,42,85.9,42.4,85.1,42.4z M84.9,37.1
		c-0.5,0-0.9,0.2-1.2,0.5c-0.3,0.3-0.5,0.8-0.6,1.4h3.4v-0.1c0-0.5-0.2-1-0.5-1.3C85.8,37.2,85.4,37.1,84.9,37.1z" fill="#000000"/>
	<path d="M91.9,42.3h-0.6v-7.5h0.6V42.3z" fill="#000000"/>
	<path d="M94.4,36.6l0,1c0.2-0.3,0.5-0.6,0.8-0.8c0.3-0.2,0.7-0.3,1-0.3c0.6,0,1,0.2,1.3,0.5c0.3,0.3,0.4,0.8,0.4,1.5v3.7h-0.6v-3.7
		c0-0.5-0.1-0.9-0.3-1.1c-0.2-0.2-0.5-0.4-1-0.4c-0.4,0-0.7,0.1-1,0.4s-0.5,0.6-0.7,1v3.8h-0.6v-5.6H94.4z" fill="#000000"/>
	<path d="M103,40.8c0-0.3-0.1-0.6-0.4-0.7s-0.6-0.3-1.1-0.4s-0.9-0.2-1.2-0.4c-0.3-0.1-0.5-0.3-0.6-0.5c-0.1-0.2-0.2-0.4-0.2-0.7
		c0-0.4,0.2-0.8,0.6-1.1c0.4-0.3,0.8-0.4,1.4-0.4c0.6,0,1.1,0.2,1.5,0.5c0.4,0.3,0.6,0.7,0.6,1.2h-0.6c0-0.3-0.1-0.6-0.4-0.8
		c-0.3-0.2-0.6-0.3-1-0.3c-0.4,0-0.7,0.1-1,0.3c-0.2,0.2-0.4,0.4-0.4,0.7c0,0.3,0.1,0.5,0.3,0.7s0.6,0.3,1.1,0.4
		c0.5,0.1,1,0.3,1.2,0.4c0.3,0.1,0.5,0.3,0.6,0.5c0.1,0.2,0.2,0.5,0.2,0.7c0,0.5-0.2,0.9-0.6,1.1s-0.9,0.4-1.5,0.4
		c-0.7,0-1.2-0.2-1.6-0.5c-0.4-0.3-0.6-0.7-0.6-1.2h0.6c0,0.4,0.2,0.6,0.5,0.8c0.3,0.2,0.7,0.3,1.1,0.3c0.4,0,0.8-0.1,1-0.3
		C102.8,41.4,103,41.1,103,40.8z" fill="#000000"/>
	<path d="M108.6,41.5c-0.4,0.5-1,0.8-1.8,0.8c-0.6,0-1.1-0.2-1.4-0.5c-0.3-0.3-0.5-0.9-0.5-1.5v-3.6h0.6v3.6c0,1.1,0.4,1.6,1.3,1.6
		c0.9,0,1.5-0.4,1.7-1.1v-4.1h0.6v5.6h-0.6L108.6,41.5z" fill="#000000"/>
	<path d="M113.4,37.2c-0.1,0-0.3,0-0.4,0c-0.4,0-0.7,0.1-1,0.3c-0.3,0.2-0.5,0.5-0.6,0.9v3.9h-0.6v-5.6h0.6l0,0.9
		c0.3-0.7,0.9-1,1.6-1c0.2,0,0.3,0,0.4,0.1L113.4,37.2z" fill="#000000"/>
	<path d="M117.7,42.3c-0.1-0.2-0.1-0.4-0.1-0.8c-0.2,0.3-0.5,0.5-0.8,0.7s-0.7,0.2-1.1,0.2c-0.5,0-1-0.2-1.3-0.5
		c-0.3-0.3-0.5-0.7-0.5-1.1c0-0.5,0.2-1,0.7-1.3c0.5-0.3,1.1-0.5,1.9-0.5h1.1v-0.6c0-0.4-0.1-0.7-0.4-0.9c-0.2-0.2-0.6-0.3-1.1-0.3
		c-0.4,0-0.8,0.1-1.1,0.3c-0.3,0.2-0.4,0.5-0.4,0.8l-0.6,0c0-0.4,0.2-0.8,0.6-1.2c0.4-0.3,0.9-0.5,1.5-0.5c0.6,0,1.1,0.2,1.5,0.5
		c0.4,0.3,0.5,0.7,0.6,1.3V41c0,0.5,0.1,0.9,0.2,1.2v0.1H117.7z M115.8,41.8c0.4,0,0.8-0.1,1.1-0.3c0.3-0.2,0.6-0.5,0.7-0.8v-1.2
		h-1.1c-0.6,0-1.1,0.1-1.5,0.3c-0.3,0.2-0.5,0.5-0.5,0.9c0,0.3,0.1,0.6,0.4,0.8C115.1,41.7,115.4,41.8,115.8,41.8z" fill="#000000"/>
	<path d="M120.5,36.6l0,1c0.2-0.3,0.5-0.6,0.8-0.8c0.3-0.2,0.7-0.3,1-0.3c0.6,0,1,0.2,1.3,0.5c0.3,0.3,0.4,0.8,0.4,1.5v3.7h-0.6
		v-3.7c0-0.5-0.1-0.9-0.3-1.1c-0.2-0.2-0.5-0.4-1-0.4c-0.4,0-0.7,0.1-1,0.4s-0.5,0.6-0.7,1v3.8h-0.6v-5.6H120.5z" fill="#000000"/>
	<path d="M127.8,41.8c0.4,0,0.8-0.1,1.1-0.4s0.5-0.6,0.5-0.9h0.6c0,0.3-0.1,0.7-0.3,0.9c-0.2,0.3-0.5,0.5-0.8,0.7
		c-0.3,0.2-0.7,0.2-1,0.2c-0.7,0-1.3-0.3-1.7-0.8c-0.4-0.5-0.6-1.2-0.6-2.1v-0.2c0-0.6,0.1-1,0.3-1.5c0.2-0.4,0.5-0.8,0.8-1
		s0.8-0.3,1.3-0.3c0.6,0,1.1,0.2,1.5,0.5c0.4,0.4,0.6,0.8,0.6,1.4h-0.6c0-0.4-0.2-0.8-0.5-1.1c-0.3-0.3-0.7-0.4-1.1-0.4
		c-0.6,0-1,0.2-1.3,0.6c-0.3,0.4-0.5,1-0.5,1.7v0.2c0,0.7,0.2,1.3,0.5,1.7C126.8,41.6,127.2,41.8,127.8,41.8z" fill="#000000"/>
	<path d="M133.3,42.4c-0.5,0-0.9-0.1-1.3-0.4c-0.4-0.2-0.7-0.6-0.9-1c-0.2-0.4-0.3-0.9-0.3-1.4v-0.2c0-0.5,0.1-1,0.3-1.5
		s0.5-0.8,0.9-1s0.8-0.4,1.2-0.4c0.7,0,1.2,0.2,1.6,0.7c0.4,0.5,0.6,1.1,0.6,1.9v0.3h-4v0.1c0,0.6,0.2,1.2,0.5,1.6
		c0.4,0.4,0.8,0.6,1.4,0.6c0.3,0,0.6-0.1,0.9-0.2c0.3-0.1,0.5-0.3,0.7-0.6l0.4,0.3C134.9,42,134.2,42.4,133.3,42.4z M133.2,37.1
		c-0.5,0-0.9,0.2-1.2,0.5c-0.3,0.3-0.5,0.8-0.6,1.4h3.4v-0.1c0-0.5-0.2-1-0.5-1.3C134.1,37.2,133.7,37.1,133.2,37.1z" fill="#000000"/>
	<path d="M141.4,42.4c-0.5,0-0.9-0.1-1.3-0.4c-0.4-0.2-0.7-0.6-0.9-1c-0.2-0.4-0.3-0.9-0.3-1.4v-0.2c0-0.5,0.1-1,0.3-1.5
		s0.5-0.8,0.9-1s0.8-0.4,1.2-0.4c0.7,0,1.2,0.2,1.6,0.7c0.4,0.5,0.6,1.1,0.6,1.9v0.3h-4v0.1c0,0.6,0.2,1.2,0.5,1.6
		c0.4,0.4,0.8,0.6,1.4,0.6c0.3,0,0.6-0.1,0.9-0.2c0.3-0.1,0.5-0.3,0.7-0.6l0.4,0.3C142.9,42,142.3,42.4,141.4,42.4z M141.3,37.1
		c-0.5,0-0.9,0.2-1.2,0.5c-0.3,0.3-0.5,0.8-0.6,1.4h3.4v-0.1c0-0.5-0.2-1-0.5-1.3C142.1,37.2,141.8,37.1,141.3,37.1z" fill="#000000"/>
	<path d="M147.1,41.3l0,0.2L147.1,41.3l2.5-6.6h0.7l-2.8,7.5h-0.6l-2.8-7.5h0.7L147.1,41.3z" fill="#000000"/>
	<path d="M154.6,42.3c-0.1-0.2-0.1-0.4-0.1-0.8c-0.2,0.3-0.5,0.5-0.8,0.7s-0.7,0.2-1.1,0.2c-0.5,0-1-0.2-1.3-0.5
		c-0.3-0.3-0.5-0.7-0.5-1.1c0-0.5,0.2-1,0.7-1.3c0.5-0.3,1.1-0.5,1.9-0.5h1.1v-0.6c0-0.4-0.1-0.7-0.4-0.9c-0.2-0.2-0.6-0.3-1.1-0.3
		c-0.4,0-0.8,0.1-1.1,0.3c-0.3,0.2-0.4,0.5-0.4,0.8l-0.6,0c0-0.4,0.2-0.8,0.6-1.2c0.4-0.3,0.9-0.5,1.5-0.5c0.6,0,1.1,0.2,1.5,0.5
		c0.4,0.3,0.5,0.7,0.6,1.3V41c0,0.5,0.1,0.9,0.2,1.2v0.1H154.6z M152.6,41.8c0.4,0,0.8-0.1,1.1-0.3c0.3-0.2,0.6-0.5,0.7-0.8v-1.2
		h-1.1c-0.6,0-1.1,0.1-1.5,0.3c-0.3,0.2-0.5,0.5-0.5,0.9c0,0.3,0.1,0.6,0.3,0.8C151.9,41.7,152.2,41.8,152.6,41.8z" fill="#000000"/>
	<path d="M157.4,42.3h-0.6v-8h0.6V42.3z" fill="#000000"/>
	<path d="M162.7,41.5c-0.4,0.5-1,0.8-1.8,0.8c-0.6,0-1.1-0.2-1.4-0.5c-0.3-0.3-0.5-0.9-0.5-1.5v-3.6h0.6v3.6c0,1.1,0.4,1.6,1.3,1.6
		c0.9,0,1.5-0.4,1.7-1.1v-4.1h0.6v5.6h-0.6L162.7,41.5z" fill="#000000"/>
	<path d="M168.5,42.3c-0.1-0.2-0.1-0.4-0.1-0.8c-0.2,0.3-0.5,0.5-0.8,0.7s-0.7,0.2-1.1,0.2c-0.5,0-1-0.2-1.3-0.5
		c-0.3-0.3-0.5-0.7-0.5-1.1c0-0.5,0.2-1,0.7-1.3c0.5-0.3,1.1-0.5,1.9-0.5h1.1v-0.6c0-0.4-0.1-0.7-0.4-0.9c-0.2-0.2-0.6-0.3-1.1-0.3
		c-0.4,0-0.8,0.1-1.1,0.3c-0.3,0.2-0.4,0.5-0.4,0.8l-0.6,0c0-0.4,0.2-0.8,0.6-1.2c0.4-0.3,0.9-0.5,1.5-0.5c0.6,0,1.1,0.2,1.5,0.5
		c0.4,0.3,0.5,0.7,0.6,1.3V41c0,0.5,0.1,0.9,0.2,1.2v0.1H168.5z M166.5,41.8c0.4,0,0.8-0.1,1.1-0.3c0.3-0.2,0.6-0.5,0.7-0.8v-1.2
		h-1.1c-0.6,0-1.1,0.1-1.5,0.3c-0.3,0.2-0.5,0.5-0.5,0.9c0,0.3,0.1,0.6,0.3,0.8C165.8,41.7,166.1,41.8,166.5,41.8z" fill="#000000"/>
	<path d="M171.6,35.2v1.4h1.2v0.5h-1.2v3.7c0,0.3,0.1,0.5,0.2,0.7s0.3,0.2,0.6,0.2c0.1,0,0.3,0,0.5-0.1l0,0.5
		c-0.2,0.1-0.4,0.1-0.7,0.1c-0.4,0-0.7-0.1-0.9-0.4c-0.2-0.2-0.3-0.6-0.3-1.1v-3.7h-1v-0.5h1v-1.4H171.6z" fill="#000000"/>
	<path d="M174,35c0-0.1,0-0.2,0.1-0.3c0.1-0.1,0.2-0.1,0.3-0.1s0.2,0,0.3,0.1c0.1,0.1,0.1,0.2,0.1,0.3s0,0.2-0.1,0.3
		c-0.1,0.1-0.2,0.1-0.3,0.1s-0.2,0-0.3-0.1C174,35.2,174,35.1,174,35z M174.7,42.3h-0.6v-5.6h0.6V42.3z" fill="#000000"/>
	<path d="M176.1,39.4c0-0.5,0.1-1,0.3-1.5c0.2-0.4,0.5-0.8,0.9-1s0.8-0.4,1.3-0.4c0.7,0,1.4,0.3,1.8,0.8c0.5,0.5,0.7,1.2,0.7,2.1
		v0.1c0,0.5-0.1,1-0.3,1.5c-0.2,0.4-0.5,0.8-0.9,1c-0.4,0.2-0.8,0.4-1.3,0.4c-0.7,0-1.3-0.3-1.8-0.8c-0.5-0.5-0.7-1.2-0.7-2.1V39.4z
		 M176.7,39.5c0,0.7,0.2,1.2,0.5,1.7s0.8,0.6,1.4,0.6c0.6,0,1-0.2,1.4-0.6c0.3-0.4,0.5-1,0.5-1.7v-0.1c0-0.4-0.1-0.8-0.2-1.2
		s-0.4-0.6-0.7-0.8c-0.3-0.2-0.6-0.3-1-0.3c-0.6,0-1,0.2-1.4,0.7c-0.3,0.4-0.5,1-0.5,1.7V39.5z" fill="#000000"/>
	<path d="M182.9,36.6l0,1c0.2-0.3,0.5-0.6,0.8-0.8c0.3-0.2,0.7-0.3,1-0.3c0.6,0,1,0.2,1.3,0.5c0.3,0.3,0.4,0.8,0.4,1.5v3.7H186v-3.7
		c0-0.5-0.1-0.9-0.3-1.1c-0.2-0.2-0.5-0.4-1-0.4c-0.4,0-0.7,0.1-1,0.4s-0.5,0.6-0.7,1v3.8h-0.6v-5.6H182.9z" fill="#000000"/>
</g>
<g>
	<path d="M189.9,6.1h-1.2v3.2h-0.3V6.1h-1.2V5.9h2.7V6.1z" fill="#000000"/>
	<path d="M190.9,5.9l1.3,3.1l1.3-3.1h0.4v3.5h-0.3V7.8l0-1.6l-1.3,3.1h-0.2l-1.3-3.1l0,1.5v1.5h-0.3V5.9H190.9z" fill="#000000"/>
</g>
</svg>
